<svg version="1.1" baseProfile="full" width="512" height="416" xmlns="http://www.w3.org/2000/svg" xmlns:xlink="http://www.w3.org/1999/xlink">
    <defs>
        <g id="hex">
            <polygon points="5 -8.66, -5 -8.66, -10 0, -5 8.66, 5 8.66, 10 0" vector-effect="non-scaling-stroke"/>
        </g>
        <g id="triangle" stroke="black" vector-effect="non-scaling-stroke" transform="translate(0, 55.43)">
            <path d="M 0 -110.86, L -64 0, L 64 0 Z" stroke-width="2" fill="none" />
        </g>
        <g id="hexagon" stroke="#fff3b8">
            <path d="M 55.43 -32, L 0 -64, L -55.43 -32, L -55.43 32, L 0 64, L 55.43 32 Z" stroke-width="4" fill="none" />
        </g>
        <g id="hexagon-double" stroke="#c775f0">
            <path d="M 55.43 -32, L 0 -64, L -55.43 -32, L -55.43 32, L 0 64, L 55.43 32 Z" stroke-width="6" fill="none" />
        </g>
    </defs>

    <rect id="background" fill="#ffe252" x="0" y="0" width="512" height="512"/>

    <defs>
        <g id="z">
            <path d="M -18 -40, L 18 -40 L 18 -32, L -8 32, L 32 32, L 28 40, L -18 40, L -18 32, L 8 -32 L -14 -32, L -18 -28 Z" stroke-width="1" stroke="#141414" fill="#141414"/>
        </g>
        <g id="a">
            <path d="M 0 -5, L 9.5 17.5, L -9.5 17.5 Z" stroke-width="1" stroke="#141414" fill="#141414"/>
            <path d="M 35 40 L 13 40, L 9 32, L 35 32 Z" stroke-width="1" stroke="#141414" fill="#141414"/>
            <path d="M -39.75 40, L -6.75 -40, L 6.75 -40, L 39.75 40, L 30 40, L 0 -32, L -30 40 Z" stroke-width="1" stroke="#141414" fill="#141414"/>
        </g>
        <g id="braket">
            <path d="M -66 -1.6, L -43.8 -40, L -38 -40, L -61.2 0, L -38 40, L -43.8 40, L -66 1.6 Z" stroke-width="1" stroke="#141414" fill="#141414"/>
        </g>
    </defs>

    <g id="main" transform="translate(200 207) scale(4.9)">
        <use xlink:href="#z" transform="translate(-20.25, 0)"/>
        <use xlink:href="#a" transform="translate(20.25, 0)"/>
    </g>
</svg>
